2.5Hzhigh3min_grf.mot
version=1
nRows=27
nColumns 19
inDegrees=yes
endheader
time	1_ground_force_vx	1_ground_force_vy	1_ground_force_vz	1_ground_force_px	1_ground_force_py	1_ground_force_pz	1_ground_torque_x	1_ground_torque_y	1_ground_torque_z	2_ground_force_vx	2_ground_force_vy	2_ground_force_vz	2_ground_force_px	2_ground_force_py	2_ground_force_pz	2_ground_torque_x	2_ground_torque_y	2_ground_torque_z
            0.005000	          -45.805074	          386.610150	          -28.402637	           -0.232110	            0.005859	           -0.320343	            0.138129	           -1.165859	            0.085651	          -54.446779	          142.759796	          -15.000390	           -0.236140	            0.005572	           -0.681193	            0.035296	           -0.092546	            0.009724
            0.005500	          -41.678816	          392.557189	          -27.791243	           -0.232471	            0.005859	           -0.320463	            0.089596	           -0.843876	            0.059743	          -56.047153	          145.317241	          -10.813912	           -0.235638	            0.005574	           -0.681298	            0.018389	           -0.047679	            0.003548
            0.006000	          -38.470610	          397.605051	          -27.731708	           -0.233118	            0.005860	           -0.320745	            0.076638	           -0.792075	            0.055245	          -56.816690	          151.375186	           -6.239885	           -0.235180	            0.005582	           -0.683072	            0.093877	           -0.250114	            0.010310
            0.006500	          -36.133835	          403.013866	          -27.806034	           -0.232878	            0.005860	           -0.320566	            0.097922	           -1.092161	            0.075354	          -57.395435	          156.333788	           -3.030794	           -0.235343	            0.005584	           -0.683722	            0.216179	           -0.588828	            0.011415
            0.007000	          -33.750640	          405.898774	          -27.845438	           -0.232896	            0.005860	           -0.320771	            0.128328	           -1.543326	            0.105875	          -59.334295	          161.478151	           -1.650664	           -0.235225	            0.005588	           -0.684641	            0.277807	           -0.756051	            0.007729
            0.007500	          -30.311808	          411.304656	          -27.188800	           -0.232984	            0.005861	           -0.320794	            0.130317	           -1.768287	            0.116890	          -63.378025	          165.515019	           -1.681424	           -0.234923	            0.005586	           -0.683832	            0.282867	           -0.738723	            0.007504
            0.008000	          -26.000838	          416.168109	          -26.123939	           -0.233136	            0.005861	           -0.320982	            0.099729	           -1.596250	            0.100201	          -68.080541	          170.287983	           -2.225485	           -0.233954	            0.005584	           -0.682189	            0.209050	           -0.522890	            0.006834
            0.008500	          -21.001886	          422.292603	          -24.826095	           -0.233370	            0.005862	           -0.321227	            0.062936	           -1.265487	            0.074397	          -72.880624	          176.343264	           -0.981639	           -0.233221	            0.005585	           -0.681897	            0.128456	           -0.310815	            0.001730
            0.009000	          -16.326059	          427.519865	          -24.494292	           -0.233727	            0.005863	           -0.321371	            0.035180	           -0.921223	            0.052780	          -76.147822	          186.264707	            2.105544	           -0.233042	            0.005591	           -0.683402	            0.117032	           -0.286272	           -0.003236
            0.009500	          -12.476702	          431.127298	          -24.809382	           -0.233687	            0.005865	           -0.321872	            0.025627	           -0.885531	            0.050958	          -78.283626	          194.345897	            5.983456	           -0.233270	            0.005596	           -0.684928	            0.117064	           -0.290622	           -0.008948
            0.010000	          -10.095283	          435.637123	          -25.437957	           -0.233888	            0.005864	           -0.321668	            0.028432	           -1.226895	            0.071642	          -79.154485	          202.431654	            9.860829	           -0.233924	            0.005596	           -0.685589	            0.155223	           -0.396972	           -0.019337
            0.010500	           -7.989606	          440.148135	          -26.340985	           -0.233780	            0.005864	           -0.321628	            0.029325	           -1.615510	            0.096681	          -79.832490	          208.865112	           12.512079	           -0.233596	            0.005598	           -0.685802	            0.258375	           -0.675985	           -0.040495
            0.011000	           -5.653805	          445.919054	          -26.780612	           -0.233706	            0.005863	           -0.321330	            0.023201	           -1.829839	            0.109895	          -81.493194	          214.749428	           13.237724	           -0.233701	            0.005594	           -0.684881	            0.294940	           -0.777221	           -0.047910
            0.011500	           -2.539536	          452.052031	          -27.541618	           -0.234172	            0.005864	           -0.321531	            0.009198	           -1.637295	            0.099753	          -84.701153	          220.816653	           12.744553	           -0.233430	            0.005595	           -0.684869	            0.281201	           -0.733092	           -0.042311
            0.012000	            1.309280	          456.741649	          -27.989638	           -0.234170	            0.005865	           -0.321906	           -0.003771	           -1.315591	            0.080621	          -88.473503	          227.435974	           11.784311	           -0.233364	            0.005600	           -0.686216	            0.227523	           -0.584886	           -0.030305
            0.012500	            5.662807	          462.151443	          -28.206537	           -0.234162	            0.005865	           -0.321935	           -0.012437	           -1.014975	            0.061947	          -91.110451	          231.109970	           11.657783	           -0.233261	            0.005599	           -0.685683	            0.084908	           -0.215378	           -0.010864
            0.013000	            9.695124	          467.381470	          -28.560981	           -0.234348	            0.005866	           -0.322123	           -0.021238	           -1.023822	            0.062564	          -91.544770	          234.786393	           13.078947	           -0.233367	            0.005598	           -0.685558	            0.001129	           -0.002895	           -0.000161
            0.013500	           12.351353	          473.874103	          -29.135880	           -0.234575	            0.005865	           -0.321802	           -0.035193	           -1.350208	            0.083017	          -89.497078	          238.837583	           15.204290	           -0.234034	            0.005598	           -0.686349	            0.036391	           -0.097115	           -0.006182
            0.014000	           14.226449	          478.387430	          -30.588614	           -0.234841	            0.005866	           -0.322236	           -0.049666	           -1.670116	            0.106789	          -86.277822	          242.890461	           18.033057	           -0.234706	            0.005595	           -0.686148	            0.119368	           -0.336045	           -0.024949
            0.014500	           15.504557	          485.425283	          -32.258319	           -0.234818	            0.005865	           -0.322013	           -0.059497	           -1.862760	            0.123787	          -83.014357	          247.501346	           19.362075	           -0.235857	            0.005593	           -0.686765	            0.214446	           -0.639354	           -0.050017
            0.015000	           17.561952	          490.841516	          -34.074487	           -0.234717	            0.005866	           -0.322161	           -0.059321	           -1.657975	            0.115098	          -80.684605	          251.009436	           19.138923	           -0.236101	            0.005592	           -0.686634	            0.216691	           -0.674126	           -0.051401
            0.015500	           20.445979	          496.976219	          -35.247628	           -0.234796	            0.005866	           -0.322036	           -0.057862	           -1.406440	            0.099751	          -80.231299	          255.067093	           17.839192	           -0.236823	            0.005590	           -0.686912	            0.177524	           -0.564375	           -0.039472
            0.016000	           24.338781	          504.372220	          -36.234437	           -0.234789	            0.005863	           -0.321440	           -0.059031	           -1.223288	            0.087882	          -79.584141	          257.285434	           16.110458	           -0.237375	            0.005587	           -0.686536	            0.090211	           -0.291641	           -0.018262
            0.016500	           28.049105	          509.964485	          -36.999246	           -0.234805	            0.005865	           -0.321831	           -0.070811	           -1.287417	            0.093405	          -78.097277	          260.608514	           15.276941	           -0.237871	            0.005585	           -0.686605	            0.014372	           -0.047958	           -0.002811
            0.017000	           31.117272	          516.278082	          -37.851074	           -0.234966	            0.005866	           -0.322105	           -0.089877	           -1.491184	            0.109327	          -74.686366	          263.197616	           15.660111	           -0.238342	            0.005585	           -0.687031	           -0.019906	            0.070151	            0.004174
            0.017500	           32.626153	          523.493523	          -38.878600	           -0.235343	            0.005865	           -0.321962	           -0.115790	           -1.857880	            0.137980	          -69.451832	          266.894309	           17.125791	           -0.239755	            0.005581	           -0.687334	            0.045493	           -0.174822	           -0.011218
            0.018000	           33.766866	          529.810409	          -40.551055	           -0.235412	            0.005864	           -0.321804	           -0.119335	           -1.872397	            0.143311	          -64.072723	          269.486331	           18.681326	           -0.241145	            0.005576	           -0.687374	            0.112299	           -0.472322	           -0.032742
